<?xml version="1.0" encoding="UTF-8" standalone="no"?> 
<svg xmlns="http://www.w3.org/2000/svg" width= "800" height="600" style="background-color:white" >
<!--
 	Manovella 
-->
<g transform="rotate(-30 50,200)" >
<rect  x="50" y="200" width="6" height="50" style="fill:green;stroke:black;stroke-width:1" /></g>
<!--
 	Pistone 
-->
<polygon points="20,406 80,406 80,376 71,376 71,385 29,385 29,376 20,376" style="fill:gray;stroke:black;stroke-width:1" />
<!--
 	Biella 
-->
<g transform="rotate(9 74,243)" >
<rect  x="74" y="243" width="15" height="150" style="fill:green;stroke:black;stroke-width:1" /></g>
<!--
 	Manovella 
-->
<g transform="rotate(-60 150,200)" >
<rect  x="150" y="200" width="6" height="50" style="fill:green;stroke:black;stroke-width:1" /></g>
<!--
 	Pistone 
-->
<polygon points="120,383 180,383 180,353 171,353 171,362 129,362 129,353 120,353" style="fill:gray;stroke:black;stroke-width:1" />
<!--
 	Biella 
-->
<g transform="rotate(16 193,225)" >
<rect  x="193" y="225" width="15" height="150" style="fill:green;stroke:black;stroke-width:1" /></g>
<!--
 	Manovella 
-->
<g transform="rotate(-90 250,200)" >
<rect  x="250" y="200" width="6" height="50" style="fill:green;stroke:black;stroke-width:1" /></g>
<!--
 	Pistone 
-->
<polygon points="220,356 280,356 280,326 271,326 271,335 229,335 229,326 220,326" style="fill:gray;stroke:black;stroke-width:1" />
<!--
 	Biella 
-->
<g transform="rotate(19 299,200)" >
<rect  x="299" y="200" width="15" height="150" style="fill:green;stroke:black;stroke-width:1" /></g>
<!--
 	Manovella 
-->
<g transform="rotate(-120 350,200)" >
<rect  x="350" y="200" width="6" height="50" style="fill:green;stroke:black;stroke-width:1" /></g>
<!--
 	Pistone 
-->
<polygon points="320,333 380,333 380,303 371,303 371,312 329,312 329,303 320,303" style="fill:gray;stroke:black;stroke-width:1" />
<!--
 	Biella 
-->
<g transform="rotate(16 393,175)" >
<rect  x="393" y="175" width="15" height="150" style="fill:green;stroke:black;stroke-width:1" /></g>
<!--
 	Manovella 
-->
<g transform="rotate(-150 450,200)" >
<rect  x="450" y="200" width="6" height="50" style="fill:green;stroke:black;stroke-width:1" /></g>
<!--
 	Pistone 
-->
<polygon points="420,319 480,319 480,289 471,289 471,298 429,298 429,289 420,289" style="fill:gray;stroke:black;stroke-width:1" />
<!--
 	Biella 
-->
<g transform="rotate(9 475,156)" >
<rect  x="475" y="156" width="15" height="150" style="fill:green;stroke:black;stroke-width:1" /></g>
<!--
 	Manovella 
-->
<g transform="rotate(-180 550,200)" >
<rect  x="550" y="200" width="6" height="50" style="fill:green;stroke:black;stroke-width:1" /></g>
<!--
 	Pistone 
-->
<polygon points="520,315 580,315 580,285 571,285 571,294 529,294 529,285 520,285" style="fill:gray;stroke:black;stroke-width:1" />
<!--
 	Biella 
-->
<g transform="rotate(0 550,150)" >
<rect  x="550" y="150" width="15" height="150" style="fill:green;stroke:black;stroke-width:1" /></g>
<!--
 	Manovella 
-->
<g transform="rotate(-210 650,200)" >
<rect  x="650" y="200" width="6" height="50" style="fill:green;stroke:black;stroke-width:1" /></g>
<!--
 	Pistone 
-->
<polygon points="620,319 680,319 680,289 671,289 671,298 629,298 629,289 620,289" style="fill:gray;stroke:black;stroke-width:1" />
<!--
 	Biella 
-->
<g transform="rotate(-9 625,156)" >
<rect  x="625" y="156" width="15" height="150" style="fill:green;stroke:black;stroke-width:1" /></g>
<!--
 	Manovella 
-->
<g transform="rotate(-240 750,200)" >
<rect  x="750" y="200" width="6" height="50" style="fill:green;stroke:black;stroke-width:1" /></g>
<!--
 	Pistone 
-->
<polygon points="720,333 780,333 780,303 771,303 771,312 729,312 729,303 720,303" style="fill:gray;stroke:black;stroke-width:1" />
<!--
 	Biella 
-->
<g transform="rotate(-16 706,174)" >
<rect  x="706" y="174" width="15" height="150" style="fill:green;stroke:black;stroke-width:1" /></g>

</svg>