<?xml version="1.0" encoding="UTF-8" standalone="no"?> 
<svg xmlns="http://www.w3.org/2000/svg" width= "800" height="600" style="background-color:white" >
<!--
 Sono presenti 8 meccanismi
-->
<!--
 Meccanismo 1
-->
<!--
 	Manovella 
-->
<g transform="rotate(0 50,200)" >
<rect  x="50" y="200" width="6" height="50" style="fill:green;stroke:black;stroke-width:1" /></g>
<!--
 	Pistone 
-->
<polygon points="19,414 79,414 79,384 70,384 70,393 28,393 28,384 19,384" style="fill:gray;stroke:black;stroke-width:1" />
<!--
 	Biella 
-->
<g transform="rotate(0 50,250)" >
<rect  x="50" y="250" width="15" height="150" style="fill:green;stroke:black;stroke-width:1" /></g>
<!--
 Meccanismo 2
-->
<!--
 	Manovella 
-->
<g transform="rotate(-45 150,200)" >
<rect  x="150" y="200" width="6" height="50" style="fill:green;stroke:black;stroke-width:1" /></g>
<!--
 	Pistone 
-->
<polygon points="119,395 179,395 179,365 170,365 170,374 128,374 128,365 119,365" style="fill:gray;stroke:black;stroke-width:1" />
<!--
 	Biella 
-->
<g transform="rotate(14 185,235)" >
<rect  x="185" y="235" width="15" height="150" style="fill:green;stroke:black;stroke-width:1" /></g>
<!--
 Meccanismo 3
-->
<!--
 	Manovella 
-->
<g transform="rotate(-90 250,200)" >
<rect  x="250" y="200" width="6" height="50" style="fill:green;stroke:black;stroke-width:1" /></g>
<!--
 	Pistone 
-->
<polygon points="219,356 279,356 279,326 270,326 270,335 228,335 228,326 219,326" style="fill:gray;stroke:black;stroke-width:1" />
<!--
 	Biella 
-->
<g transform="rotate(19 299,200)" >
<rect  x="299" y="200" width="15" height="150" style="fill:green;stroke:black;stroke-width:1" /></g>
<!--
 Meccanismo 4
-->
<!--
 	Manovella 
-->
<g transform="rotate(-135 350,200)" >
<rect  x="350" y="200" width="6" height="50" style="fill:green;stroke:black;stroke-width:1" /></g>
<!--
 	Pistone 
-->
<polygon points="319,325 379,325 379,295 370,295 370,304 328,304 328,295 319,295" style="fill:gray;stroke:black;stroke-width:1" />
<!--
 	Biella 
-->
<g transform="rotate(14 385,164)" >
<rect  x="385" y="164" width="15" height="150" style="fill:green;stroke:black;stroke-width:1" /></g>
<!--
 Meccanismo 5
-->
<!--
 	Manovella 
-->
<g transform="rotate(-180 450,200)" >
<rect  x="450" y="200" width="6" height="50" style="fill:green;stroke:black;stroke-width:1" /></g>
<!--
 	Pistone 
-->
<polygon points="419,314 479,314 479,284 470,284 470,293 428,293 428,284 419,284" style="fill:gray;stroke:black;stroke-width:1" />
<!--
 	Biella 
-->
<g transform="rotate(0 450,150)" >
<rect  x="450" y="150" width="15" height="150" style="fill:green;stroke:black;stroke-width:1" /></g>
<!--
 Meccanismo 6
-->
<!--
 	Manovella 
-->
<g transform="rotate(-225 550,200)" >
<rect  x="550" y="200" width="6" height="50" style="fill:green;stroke:black;stroke-width:1" /></g>
<!--
 	Pistone 
-->
<polygon points="519,325 579,325 579,295 570,295 570,304 528,304 528,295 519,295" style="fill:gray;stroke:black;stroke-width:1" />
<!--
 	Biella 
-->
<g transform="rotate(-13 514,164)" >
<rect  x="514" y="164" width="15" height="150" style="fill:green;stroke:black;stroke-width:1" /></g>
<!--
 Meccanismo 7
-->
<!--
 	Manovella 
-->
<g transform="rotate(-270 650,200)" >
<rect  x="650" y="200" width="6" height="50" style="fill:green;stroke:black;stroke-width:1" /></g>
<!--
 	Pistone 
-->
<polygon points="619,356 679,356 679,326 670,326 670,335 628,335 628,326 619,326" style="fill:gray;stroke:black;stroke-width:1" />
<!--
 	Biella 
-->
<g transform="rotate(-19 600,199)" >
<rect  x="600" y="199" width="15" height="150" style="fill:green;stroke:black;stroke-width:1" /></g>
<!--
 Meccanismo 8
-->
<!--
 	Manovella 
-->
<g transform="rotate(-315 750,200)" >
<rect  x="750" y="200" width="6" height="50" style="fill:green;stroke:black;stroke-width:1" /></g>
<!--
 	Pistone 
-->
<polygon points="719,396 779,396 779,366 770,366 770,375 728,375 728,366 719,366" style="fill:gray;stroke:black;stroke-width:1" />
<!--
 	Biella 
-->
<g transform="rotate(-13 714,235)" >
<rect  x="714" y="235" width="15" height="150" style="fill:green;stroke:black;stroke-width:1" /></g>

</svg>