<?xml version="1.0" encoding="UTF-8" standalone="no"?> 
<svg xmlns="http://www.w3.org/2000/svg" width= "800" height="600" style="background-color:white" >
<!--
 Sono presenti 6 meccanismi
-->
<!--
 Meccanismo 1
-->
<g transform = "rotate(90 150 200) translate(147,195)" style =" fill:rgb(128,128,128);stroke-width:3;stroke:rgb(0,0,0)">
<rect width = "50" height = "10" />
<rect width ="150" height ="10" transform = "rotate(0 47 5) translate(44,0)"/>
<circle cx="47" cy="5" r="3" stroke=" black " stroke-width="3" fill=" white " /> 
</g>
<circle cx= "150" cy= "200" r= "3" stroke= " black " stroke-width="3" fill=" white " /> 
<!--
 	Pistone 
-->
<polygon points="120,415 180,415 180,385 171,385 171,394 129,394 129,385 120,385" style="fill:gray;stroke:black;stroke-width:1" />
<!--
 Meccanismo 2
-->
<g transform = "rotate(45 250 200) translate(247,195)" style =" fill:rgb(128,128,128);stroke-width:3;stroke:rgb(0,0,0)">
<rect width = "50" height = "10" />
<rect width ="150" height ="10" transform = "rotate(58 47 5) translate(44,0)"/>
<circle cx="47" cy="5" r="3" stroke=" black " stroke-width="3" fill=" white " /> 
</g>
<circle cx= "250" cy= "200" r= "3" stroke= " black " stroke-width="3" fill=" white " /> 
<!--
 	Pistone 
-->
<polygon points="220,396 280,396 280,366 271,366 271,375 229,375 229,366 220,366" style="fill:gray;stroke:black;stroke-width:1" />
<!--
 Meccanismo 3
-->
<g transform = "rotate(0 350 200) translate(347,195)" style =" fill:rgb(128,128,128);stroke-width:3;stroke:rgb(0,0,0)">
<rect width = "50" height = "10" />
<rect width ="150" height ="10" transform = "rotate(109 47 5) translate(44,0)"/>
<circle cx="47" cy="5" r="3" stroke=" black " stroke-width="3" fill=" white " /> 
</g>
<circle cx= "350" cy= "200" r= "3" stroke= " black " stroke-width="3" fill=" white " /> 
<!--
 	Pistone 
-->
<polygon points="320,356 380,356 380,326 371,326 371,335 329,335 329,326 320,326" style="fill:gray;stroke:black;stroke-width:1" />
<!--
 Meccanismo 4
-->
<g transform = "rotate(-45 450 200) translate(447,195)" style =" fill:rgb(128,128,128);stroke-width:3;stroke:rgb(0,0,0)">
<rect width = "50" height = "10" />
<rect width ="150" height ="10" transform = "rotate(148 47 5) translate(44,0)"/>
<circle cx="47" cy="5" r="3" stroke=" black " stroke-width="3" fill=" white " /> 
</g>
<circle cx= "450" cy= "200" r= "3" stroke= " black " stroke-width="3" fill=" white " /> 
<!--
 	Pistone 
-->
<polygon points="420,325 480,325 480,295 471,295 471,304 429,304 429,295 420,295" style="fill:gray;stroke:black;stroke-width:1" />
<!--
 Meccanismo 5
-->
<g transform = "rotate(-90 550 200) translate(547,195)" style =" fill:rgb(128,128,128);stroke-width:3;stroke:rgb(0,0,0)">
<rect width = "50" height = "10" />
<rect width ="150" height ="10" transform = "rotate(180 47 5) translate(44,0)"/>
<circle cx="47" cy="5" r="3" stroke=" black " stroke-width="3" fill=" white " /> 
</g>
<circle cx= "550" cy= "200" r= "3" stroke= " black " stroke-width="3" fill=" white " /> 
<!--
 	Pistone 
-->
<polygon points="520,315 580,315 580,285 571,285 571,294 529,294 529,285 520,285" style="fill:gray;stroke:black;stroke-width:1" />
<!--
 Meccanismo 6
-->
<g transform = "rotate(-135 650 200) translate(647,195)" style =" fill:rgb(128,128,128);stroke-width:3;stroke:rgb(0,0,0)">
<rect width = "50" height = "10" />
<rect width ="150" height ="10" transform = "rotate(211 47 5) translate(44,0)"/>
<circle cx="47" cy="5" r="3" stroke=" black " stroke-width="3" fill=" white " /> 
</g>
<circle cx= "650" cy= "200" r= "3" stroke= " black " stroke-width="3" fill=" white " /> 
<!--
 	Pistone 
-->
<polygon points="620,325 680,325 680,295 671,295 671,304 629,304 629,295 620,295" style="fill:gray;stroke:black;stroke-width:1" />

</svg>